<svg width="48" height="60" fill="none" xmlns="http://www.w3.org/2000/svg"><g clip-path="url(#a)"><g clip-path="url(#b)"><path d="M17.84 11.55a1 1 0 0 1-.23-1.15 2.17 2.17 0 0 0-1.12-2.84c-.37-.21-.65-.35-.66-.86-.01-1.78-1.13-2.7-2.62-3.37a3.788 3.788 0 0 0-.48-.14C12 3 11.5 2.65 11.06 3.8a2.15 2.15 0 0 1-1.64 1.25 1.58 1.58 0 0 0-1.23 1.48 1.15 1.15 0 0 1-.72 1.08 2.12 2.12 0 0 0-1.07 2.75 1 1 0 0 1-.29 1.22 2.94 2.94 0 0 0-.14 4 2.55 2.55 0 0 1 .73 2.14c0 .49-.06 1.07.46 1.27.69.27.78.83.92 1.4.28 1.13.55 2.26.84 3.39C9.71 27 9.71 27 13 27c1 0 1.45-.22 1.65-1.23.31-1.62.87-3.18 1.14-4.8.27-1.62 2.16-2.58 1.57-4.47 0-.12.28-.36.43-.54a3.002 3.002 0 0 0 .05-4.41zm-9 8c.46-.58 1.12-.12 1.72-.12-.44.31-.5 1.22-1.25.85-.22-.17-.61-.54-.43-.77l-.04.04zm3.16.05a6.48 6.48 0 0 1 1.66 1.57c-.49.61-1 1.46-1.62 1.52-.62.06-1.16-.84-1.6-1.44-.12-.19 1.35-1.76 1.56-1.65zm-2.44 3a3.46 3.46 0 0 1-.04-.6 2.789 2.789 0 0 1 1.63 1.62c.1.35-.48.83-1.06 1-.18-.73-.35-1.38-.51-2.03l-.02.01zm.97 3.4c1.4-1.83 1.38-2.22 3 0h-3zm3.39-1.38c-1.45-.74-1.62-1 .69-2.66l-.69 2.66zm.73-4.33c-.75.29-.79-.54-1.19-.86.6 0 1.26-.45 1.67.13.16.19-.2.59-.48.69v.04zm.93-1.93H8.39c-.59 0-.73-.21-.75-.77-.02-.56.24-.73.79-.71H15.62c.6 0 .74.17.74.73 0 .56-.21.71-.78.71v.04zm0-2.44H8.6a2.24 2.24 0 0 1-2.32-2 2.06 2.06 0 0 1 1.95-2.3c.39-.07.91 0 .86-.58-.05-.58-.51-.39-.87-.4-1 0-1.09-.68-.88-1.41a1.49 1.49 0 0 1 1.49-1c.42 0 1 .18 1.19-.33.19-.51-.45-.5-.67-.76-.42-.52-.05-.91.41-1.13.9-.42 1.93-.63 2.33-1.72.08-.21.34-.2.54-.13a3.06 3.06 0 0 1 2.21 2c.12.42.34 1-.43 1.13a.42.42 0 0 0-.38.52c.08.32.35.41.65.41a2.41 2.41 0 0 1 1.51.28 1.33 1.33 0 0 1 .62 1.45c-.14.68-.64.7-1.2.69h-3.13c-.36 0-.83 0-.85.43-.02.43.48.53.89.53h3a2.13 2.13 0 0 1 2.28 2.12 2.152 2.152 0 0 1-2.26 2.16l.04.04z" fill="#010101"/></g><g clip-path="url(#c)"><path d="M41.84 11.55a1 1 0 0 1-.23-1.15 2.17 2.17 0 0 0-1.12-2.84c-.37-.21-.65-.35-.66-.86-.01-1.78-1.13-2.7-2.62-3.37a3.788 3.788 0 0 0-.48-.14C36 3 35.5 2.65 35.06 3.8a2.15 2.15 0 0 1-1.64 1.25 1.58 1.58 0 0 0-1.23 1.48 1.15 1.15 0 0 1-.72 1.08 2.12 2.12 0 0 0-1.07 2.75 1 1 0 0 1-.29 1.22 2.94 2.94 0 0 0-.14 4 2.552 2.552 0 0 1 .73 2.14c0 .49-.06 1.07.46 1.27.69.27.78.83.92 1.4.28 1.13.55 2.26.84 3.39C33.71 27 33.71 27 37 27c1 0 1.45-.22 1.65-1.23.31-1.62.87-3.18 1.14-4.8.27-1.62 2.16-2.58 1.57-4.47 0-.12.28-.36.43-.54a3.002 3.002 0 0 0 .05-4.41zm-9 8c.46-.58 1.12-.12 1.72-.12-.44.31-.5 1.22-1.25.85-.22-.17-.61-.54-.43-.77l-.04.04zm3.16.05a6.48 6.48 0 0 1 1.66 1.57c-.49.61-1 1.46-1.62 1.52-.62.06-1.16-.84-1.6-1.44-.12-.19 1.35-1.76 1.56-1.65zm-2.44 3c-.03-.199-.044-.4-.04-.6a2.788 2.788 0 0 1 1.63 1.62c.1.35-.48.83-1.06 1-.18-.73-.35-1.38-.51-2.03l-.02.01zm.97 3.4c1.4-1.83 1.38-2.22 3 0h-3zm3.39-1.38c-1.45-.74-1.62-1 .69-2.66l-.69 2.66zm.73-4.33c-.75.29-.79-.54-1.19-.86.6 0 1.26-.45 1.67.13.16.19-.2.59-.48.69v.04zm.93-1.93h-7.19c-.59 0-.73-.21-.75-.77-.02-.56.24-.73.79-.71H39.62c.6 0 .74.17.74.73 0 .56-.21.71-.78.71v.04zm0-2.44H32.6a2.24 2.24 0 0 1-2.32-2 2.06 2.06 0 0 1 1.95-2.3c.39-.07.91 0 .86-.58-.05-.58-.51-.39-.87-.4-1 0-1.09-.68-.88-1.41a1.49 1.49 0 0 1 1.49-1c.42 0 1 .18 1.19-.33.19-.51-.45-.5-.67-.76-.42-.52-.05-.91.41-1.13.9-.42 1.93-.63 2.33-1.72.08-.21.34-.2.54-.13a3.06 3.06 0 0 1 2.21 2c.12.42.34 1-.43 1.13a.42.42 0 0 0-.38.52c.08.32.35.41.65.41a2.41 2.41 0 0 1 1.51.28 1.33 1.33 0 0 1 .62 1.45c-.14.68-.64.7-1.2.69h-3.13c-.36 0-.83 0-.85.43-.02.43.48.53.89.53h3a2.13 2.13 0 0 1 2.28 2.12 2.152 2.152 0 0 1-2.26 2.16l.04.04z" fill="#010101"/></g><g clip-path="url(#d)"><path d="M5.84 41.55a1 1 0 0 1-.23-1.15 2.17 2.17 0 0 0-1.12-2.84c-.37-.21-.65-.35-.66-.86-.01-1.78-1.13-2.7-2.62-3.37a3.795 3.795 0 0 0-.48-.14C0 33-.5 32.65-.94 33.8a2.15 2.15 0 0 1-1.64 1.25 1.58 1.58 0 0 0-1.23 1.48 1.15 1.15 0 0 1-.72 1.08 2.12 2.12 0 0 0-1.07 2.75 1 1 0 0 1-.29 1.22 2.94 2.94 0 0 0-.14 4 2.55 2.55 0 0 1 .73 2.14c0 .49-.06 1.07.46 1.27.69.27.78.83.92 1.4.28 1.13.55 2.26.84 3.39C-2.29 57-2.29 57 1 57c1 0 1.45-.22 1.65-1.23.31-1.62.87-3.18 1.14-4.8.27-1.62 2.16-2.58 1.57-4.47 0-.12.28-.36.43-.54a3 3 0 0 0 .05-4.41zm-9 8c.46-.58 1.12-.12 1.72-.12-.44.31-.5 1.22-1.25.85-.22-.17-.61-.54-.43-.77l-.04.04zM0 49.6a6.48 6.48 0 0 1 1.66 1.57c-.49.61-1 1.46-1.62 1.52-.62.06-1.16-.84-1.6-1.44-.12-.19 1.35-1.76 1.56-1.65zm-2.44 3a3.46 3.46 0 0 1-.04-.6 2.79 2.79 0 0 1 1.63 1.62c.1.35-.48.83-1.06 1-.18-.73-.35-1.38-.51-2.03l-.02.01zm.97 3.4c1.4-1.83 1.38-2.22 3 0h-3zm3.39-1.38c-1.45-.74-1.62-1 .69-2.66l-.69 2.66zm.73-4.33c-.75.29-.79-.54-1.19-.86.6 0 1.26-.45 1.67.13.16.19-.2.59-.48.69v.04zm.93-1.93h-7.19c-.59 0-.73-.21-.75-.77-.02-.56.24-.73.79-.71H3.62c.6 0 .74.17.74.73 0 .56-.21.71-.78.71v.04zm0-2.44H-3.4a2.24 2.24 0 0 1-2.32-2 2.06 2.06 0 0 1 1.95-2.3c.39-.07.91 0 .86-.58-.05-.58-.51-.39-.87-.4-1 0-1.09-.68-.88-1.41a1.49 1.49 0 0 1 1.49-1c.42 0 1 .18 1.19-.33.19-.51-.45-.5-.67-.76-.42-.52-.05-.91.41-1.13.9-.42 1.93-.63 2.33-1.72.08-.21.34-.2.54-.13a3.06 3.06 0 0 1 2.21 2c.12.42.34 1-.43 1.13a.42.42 0 0 0-.38.52c.08.32.35.41.65.41a2.41 2.41 0 0 1 1.51.28 1.33 1.33 0 0 1 .62 1.45c-.14.68-.64.7-1.2.69H.48c-.36 0-.83 0-.85.43-.02.43.48.53.89.53h3a2.13 2.13 0 0 1 2.28 2.12 2.15 2.15 0 0 1-2.26 2.16l.04.04z" fill="#010101"/></g><g clip-path="url(#e)"><path d="M29.84 41.55a1 1 0 0 1-.23-1.15 2.17 2.17 0 0 0-1.12-2.84c-.37-.21-.65-.35-.66-.86-.01-1.78-1.13-2.7-2.62-3.37a3.793 3.793 0 0 0-.48-.14c-.73-.19-1.23-.54-1.67.61a2.15 2.15 0 0 1-1.64 1.25 1.58 1.58 0 0 0-1.23 1.48 1.15 1.15 0 0 1-.72 1.08 2.12 2.12 0 0 0-1.07 2.75 1 1 0 0 1-.29 1.22 2.94 2.94 0 0 0-.14 4 2.552 2.552 0 0 1 .73 2.14c0 .49-.06 1.07.46 1.27.69.27.78.83.92 1.4.28 1.13.55 2.26.84 3.39C21.71 57 21.71 57 25 57c1 0 1.45-.22 1.65-1.23.31-1.62.87-3.18 1.14-4.8.27-1.62 2.16-2.58 1.57-4.47 0-.12.28-.36.43-.54a3.002 3.002 0 0 0 .05-4.41zm-9 8c.46-.58 1.12-.12 1.72-.12-.44.31-.5 1.22-1.25.85-.22-.17-.61-.54-.43-.77l-.04.04zm3.16.05a6.48 6.48 0 0 1 1.66 1.57c-.49.61-1 1.46-1.62 1.52-.62.06-1.16-.84-1.6-1.44-.12-.19 1.35-1.76 1.56-1.65zm-2.44 3c-.03-.199-.044-.4-.04-.6a2.788 2.788 0 0 1 1.63 1.62c.1.35-.48.83-1.06 1-.18-.73-.35-1.38-.51-2.03l-.02.01zm.97 3.4c1.4-1.83 1.38-2.22 3 0h-3zm3.39-1.38c-1.45-.74-1.62-1 .69-2.66l-.69 2.66zm.73-4.33c-.75.29-.79-.54-1.19-.86.6 0 1.26-.45 1.67.13.16.19-.2.59-.48.69v.04zm.93-1.93h-7.19c-.59 0-.73-.21-.75-.77-.02-.56.24-.73.79-.71H27.62c.6 0 .74.17.74.73 0 .56-.21.71-.78.71v.04zm0-2.44H20.6a2.24 2.24 0 0 1-2.32-2 2.06 2.06 0 0 1 1.95-2.3c.39-.07.91 0 .86-.58-.05-.58-.51-.39-.87-.4-1 0-1.09-.68-.88-1.41a1.49 1.49 0 0 1 1.49-1c.42 0 1 .18 1.19-.33.19-.51-.45-.5-.67-.76-.42-.52-.05-.91.41-1.13.9-.42 1.93-.63 2.33-1.72.08-.21.34-.2.54-.13a3.06 3.06 0 0 1 2.21 2c.12.42.34 1-.43 1.13a.419.419 0 0 0-.38.52c.08.32.35.41.65.41a2.41 2.41 0 0 1 1.51.28 1.33 1.33 0 0 1 .62 1.45c-.14.68-.64.7-1.2.69h-3.13c-.36 0-.83 0-.85.43-.02.43.48.53.89.53h3a2.13 2.13 0 0 1 2.28 2.12 2.152 2.152 0 0 1-2.26 2.16l.04.04z" fill="#010101"/></g><g clip-path="url(#f)"><path d="M53.84 41.55a1 1 0 0 1-.23-1.15 2.17 2.17 0 0 0-1.12-2.84c-.37-.21-.65-.35-.66-.86-.01-1.78-1.13-2.7-2.62-3.37a3.793 3.793 0 0 0-.48-.14c-.73-.19-1.23-.54-1.67.61a2.15 2.15 0 0 1-1.64 1.25 1.58 1.58 0 0 0-1.23 1.48 1.15 1.15 0 0 1-.72 1.08 2.12 2.12 0 0 0-1.07 2.75 1 1 0 0 1-.29 1.22 2.94 2.94 0 0 0-.14 4 2.552 2.552 0 0 1 .73 2.14c0 .49-.06 1.07.46 1.27.69.27.78.83.92 1.4.28 1.13.55 2.26.84 3.39C45.71 57 45.71 57 49 57c1 0 1.45-.22 1.65-1.23.31-1.62.87-3.18 1.14-4.8.27-1.62 2.16-2.58 1.57-4.47 0-.12.28-.36.43-.54a3.002 3.002 0 0 0 .05-4.41zm-9 8c.46-.58 1.12-.12 1.72-.12-.44.31-.5 1.22-1.25.85-.22-.17-.61-.54-.43-.77l-.04.04zm3.16.05a6.48 6.48 0 0 1 1.66 1.57c-.49.61-1 1.46-1.62 1.52-.62.06-1.16-.84-1.6-1.44-.12-.19 1.35-1.76 1.56-1.65zm-2.44 3c-.03-.199-.044-.4-.04-.6a2.788 2.788 0 0 1 1.63 1.62c.1.35-.48.83-1.06 1-.18-.73-.35-1.38-.51-2.03l-.02.01zm.97 3.4c1.4-1.83 1.38-2.22 3 0h-3zm3.39-1.38c-1.45-.74-1.62-1 .69-2.66l-.69 2.66zm.73-4.33c-.75.29-.79-.54-1.19-.86.6 0 1.26-.45 1.67.13.16.19-.2.59-.48.69v.04zm.93-1.93h-7.19c-.59 0-.73-.21-.75-.77-.02-.56.24-.73.79-.71H51.62c.6 0 .74.17.74.73 0 .56-.21.71-.78.71v.04zm0-2.44H44.6a2.24 2.24 0 0 1-2.32-2 2.06 2.06 0 0 1 1.95-2.3c.39-.07.91 0 .86-.58-.05-.58-.51-.39-.87-.4-1 0-1.09-.68-.88-1.41a1.49 1.49 0 0 1 1.49-1c.42 0 1 .18 1.19-.33.19-.51-.45-.5-.67-.76-.42-.52-.05-.91.41-1.13.9-.42 1.93-.63 2.33-1.72.08-.21.34-.2.54-.13a3.06 3.06 0 0 1 2.21 2c.12.42.34 1-.43 1.13a.419.419 0 0 0-.38.52c.08.32.35.41.65.41a2.41 2.41 0 0 1 1.51.28 1.33 1.33 0 0 1 .62 1.45c-.14.68-.64.7-1.2.69h-3.13c-.36 0-.83 0-.85.43-.02.43.48.53.89.53h3a2.13 2.13 0 0 1 2.28 2.12 2.152 2.152 0 0 1-2.26 2.16l.04.04z" fill="#010101"/></g></g><defs><clipPath id="a"><path fill="#fff" d="M0 0h48v60H0z"/></clipPath><clipPath id="b"><path fill="#fff" transform="translate(0 3)" d="M0 0h24v24H0z"/></clipPath><clipPath id="c"><path fill="#fff" transform="translate(24 3)" d="M0 0h24v24H0z"/></clipPath><clipPath id="d"><path fill="#fff" transform="translate(-12 33)" d="M0 0h24v24H0z"/></clipPath><clipPath id="e"><path fill="#fff" transform="translate(12 33)" d="M0 0h24v24H0z"/></clipPath><clipPath id="f"><path fill="#fff" transform="translate(36 33)" d="M0 0h24v24H0z"/></clipPath></defs></svg>