<svg xmlns="http://www.w3.org/2000/svg" viewBox="0 0 14 24">
  <g>
    <path
      d="M11.28,1.44l-.07-.06a6.24,6.24,0,0,0-.8-.61,6.85,6.85,0,0,0-6-.16,10.07,10.07,0,0,0-1.28.77h0C1.25,2.75.71,4.5.7,7.87c0,2.53,0,5.05,0,7.58,0,2.12.44,2.52,2.55,2.53s1.91-.24,1.93,2c0,1.3-.16,2.67.83,3.64a2.1,2.1,0,0,0,2.42,0,3,3,0,0,0,.89-2.12V20.27A.5.5,0,0,1,9.67,20c.55-.18.61.32.8.68a1.35,1.35,0,0,0,1.6.7c1.07-.22,1.21-1.07,1.21-2,0-4-.07-8,0-12C13.36,4.88,12.79,2.86,11.28,1.44Zm-3,20.22a.82.82,0,0,1-.82.81H7.15a.81.81,0,0,1-.81-.81V18.31a.82.82,0,0,1,.81-.82h.33a.82.82,0,0,1,.82.82Zm4-9.43h0c0,2,0,4.07,0,6.1,0,.39.09,1-.45,1s-.41-.6-.43-1c0-.9-.06-1.81-.1-2.71,0-.34-.14-.68-.52-.68s-.44.39-.46.71c0,.54,0,1.09-.09,1.62,0,.26-.07.6-.43.58a.47.47,0,0,1-.42-.58c.14-1.37-.71-1.42-1.71-1.38-1.54,0-3.08,0-4.62.06-.89,0-1.32-.22-1.3-1.21.05-2.8,0-5.61,0-8.41A5.36,5.36,0,0,1,7.33.92c3,0,4.88,2.15,4.94,5.47C12.3,8.34,12.27,10.28,12.27,12.23Z" />
    <path
      d="M9.93,4.89h0a.42.42,0,0,0-.41.41V7s0,0,0,.06V9.49A.54.54,0,0,1,9,10a.55.55,0,0,1-.55-.54V9A.41.41,0,0,0,8,8.6h-.1a.41.41,0,0,0-.4.41v.31h0v2.15A.55.55,0,0,1,7,12a.55.55,0,0,1-.54-.55V8.88A.4.4,0,0,0,6,8.48H6a.4.4,0,0,0-.4.4v.27A.55.55,0,0,1,5,9.61a.54.54,0,0,1-.53-.48V8.36A.42.42,0,0,0,4.08,8h0a.41.41,0,0,0-.4.41v1A1.36,1.36,0,0,0,5,10.72a1.41,1.41,0,0,0,.61-.15v1.2a1.36,1.36,0,1,0,2.71,0V11a1.28,1.28,0,0,0,.64.18,1.48,1.48,0,0,0,1.35-1.58V5.3A.41.41,0,0,0,9.93,4.89Z" />
  </g>
</svg>