<svg xmlns="http://www.w3.org/2000/svg" width="24" height="24" viewBox="0 0 24 24">
  <path
    d="M7.88,16.19c-2.9-.78-4.12-.07-3.61-2L6.86,4.53S9.5-.72,14.18.77s4.4,5.39,4.4,5.39l-1.81,7-2,7.32-.76.46-1.65-1-1.29-.85s-.82,2.8-.84,2.84-1.43.92-1.43.92-1.22-.86-1.26-.9,0-1.17,0-1.17L8,18.49Z"
    fill="#fff" />
  <g>
    <path
      d="M18,2.79l0-.08a5.06,5.06,0,0,0-.62-.8A6.82,6.82,0,0,0,11.56.21a9.75,9.75,0,0,0-1.43.41h0C7.94,1.46,7,3,6.09,6.25c-.66,2.44-1.32,4.88-1.95,7.33C3.6,15.63,3.91,16.13,6,16.69s1.9.26,1.35,2.4c-.32,1.27-.85,2.54-.15,3.74a2.1,2.1,0,0,0,2.33.64,3,3,0,0,0,1.42-1.82h0l0-.16v-.06l.26-1a.48.48,0,0,1,.39-.19c.58,0,.52.48.6.86a1.35,1.35,0,0,0,1.37,1.1c1.09.06,1.44-.72,1.68-1.6,1-3.88,2-7.77,3.13-11.62C19.09,6.64,19.07,4.54,18,2.79ZM9.86,21.54a.82.82,0,0,1-1,.57L8.54,22A.83.83,0,0,1,8,21l.87-3.23a.81.81,0,0,1,1-.58l.32.09a.8.8,0,0,1,.57,1Zm6.28-8.08h0c-.52,2-1,3.93-1.58,5.9-.1.37-.17.95-.69.81s-.23-.68-.16-1c.18-.89.41-1.76.6-2.65.08-.32,0-.69-.32-.78s-.53.26-.63.56c-.17.51-.32,1-.51,1.55-.09.24-.22.55-.56.44a.47.47,0,0,1-.26-.67c.49-1.29-.32-1.55-1.3-1.78-1.49-.35-3-.78-4.47-1.13-.87-.2-1.22-.56-1-1.51C6.06,10.46,6.7,7.72,7.49,5a5.36,5.36,0,0,1,6.8-3.77c2.85.8,4.16,3.34,3.35,6.56C17.17,9.71,16.64,11.58,16.14,13.46Z" />
    <path
      d="M15.77,5.77h0a.4.4,0,0,0-.5.28l-.45,1.66a.13.13,0,0,1,0,.06l-.62,2.33a.54.54,0,0,1-.67.38.54.54,0,0,1-.38-.66l0-.16.08-.3a.41.41,0,0,0-.28-.5l-.09,0a.41.41,0,0,0-.5.28l-.08.3h0l-.56,2.08a.56.56,0,0,1-.67.39.55.55,0,0,1-.38-.67l.47-1.74.09-.34L11.31,9l.06-.23a.41.41,0,0,0-.29-.5L11,8.2a.41.41,0,0,0-.49.29l-.07.25a.54.54,0,0,1-1-.29l.2-.74a.41.41,0,0,0-.29-.5h0a.4.4,0,0,0-.5.29l-.2.74v0l0,.2a1.35,1.35,0,0,0,1,1.66,1.31,1.31,0,0,0,.62,0L9.84,11.3a1.35,1.35,0,0,0,1,1.66,1.36,1.36,0,0,0,1.66-1l.21-.79a1.13,1.13,0,0,0,.57.35A1.49,1.49,0,0,0,15,10.38l.66-2.46.16-.61.28-1A.41.41,0,0,0,15.77,5.77Z" />
  </g>
</svg>